<?xml version="1.0" standalone="no"?>
<!DOCTYPE svg PUBLIC "-//W3C//DTD SVG 20010904//EN"
 "http://www.w3.org/TR/2001/REC-SVG-20010904/DTD/svg10.dtd">
<svg version="1.0" xmlns="http://www.w3.org/2000/svg"
 width="300.000000pt" height="139.000000pt" viewBox="0 0 300.000000 139.000000"
 preserveAspectRatio="xMidYMid meet">
<metadata>
Created by potrace 1.10, written by Peter Selinger 2001-2011
</metadata>
<g transform="translate(0.000000,139.000000) scale(0.100000,-0.100000)"
fill="#d9d9d9" stroke="none">
<path d="M1370 1294 c-109 -29 -199 -106 -248 -212 -23 -48 -27 -71 -27 -147
0 -76 4 -99 27 -147 36 -77 101 -145 169 -178 l56 -26 -181 -13 c-99 -7 -187
-17 -196 -21 -9 -6 190 -9 495 -9 305 0 504 3 495 9 -9 4 -97 14 -196 21
l-180 13 58 28 c135 68 216 230 189 381 -27 151 -130 264 -277 302 -71 18
-112 18 -184 -1z m207 -75 c76 -29 143 -96 172 -172 92 -248 -145 -489 -392
-397 -199 75 -262 323 -123 487 80 94 219 128 343 82z m-157 -618 l25 -7 -22
-8 c-26 -8 -63 0 -63 15 0 10 23 10 60 0z m150 0 c0 -17 -21 -19 -95 -11 -28
3 -13 6 83 18 6 1 12 -2 12 -7z"/>
<path d="M1390 1211 c-93 -30 -146 -78 -186 -165 -23 -50 -26 -68 -22 -126 18
-248 314 -358 487 -180 167 173 55 460 -186 475 -38 3 -79 1 -93 -4z m79 -83
l-2 -73 -7 65 c-7 60 -6 80 6 80 2 0 3 -33 3 -72z m-60 18 c21 -45 27 -116 10
-127 -21 -13 -26 -12 -69 28 -68 60 -73 90 -21 118 37 21 64 14 80 -19z m203
5 l33 -29 -21 -28 c-35 -47 -89 -85 -109 -78 -15 6 -17 15 -12 58 11 108 47
133 109 77z m-310 -113 c65 -39 63 -37 56 -43 -6 -6 -128 62 -128 70 0 12 24
3 72 -27z m393 23 c-20 -18 -125 -73 -125 -64 0 11 101 72 120 73 8 0 10 -3 5
-9z m-376 -86 c78 -27 64 -64 -33 -89 -72 -19 -86 -11 -86 48 0 68 20 76 119
41z m401 6 c15 -28 12 -77 -5 -94 -11 -12 -24 -13 -53 -6 -125 28 -136 75 -25
105 65 17 71 17 83 -5z m-225 -46 c0 -27 -3 -30 -30 -30 -21 0 -31 5 -33 18
-6 33 6 49 35 45 24 -3 28 -8 28 -33z m-135 -62 c0 -10 -107 -73 -123 -73 -17
0 4 18 60 51 50 29 63 34 63 22z m282 -30 c34 -20 58 -38 52 -40 -13 -4 -124
58 -124 69 0 12 5 10 72 -29z m-228 11 c19 -7 20 -51 3 -108 -17 -55 -38 -65
-82 -42 -56 30 -55 52 3 108 55 52 53 51 76 42z m176 -42 c28 -27 50 -53 50
-59 0 -17 -59 -63 -81 -63 -27 0 -49 39 -56 100 -4 39 -3 54 8 61 22 14 26 12
79 -39z m-120 -69 c0 -44 -4 -73 -9 -67 -8 8 -3 144 5 144 2 0 4 -35 4 -77z"/>
<path d="M94 373 c3 -10 23 -70 44 -133 l39 -115 34 -3 35 -3 29 91 c16 49 32
87 35 83 4 -5 18 -45 31 -90 l24 -83 35 0 35 0 39 123 c21 67 41 128 43 135 3
8 -5 12 -25 12 -28 0 -31 -3 -56 -84 -14 -46 -26 -89 -26 -95 0 -6 -4 -11 -10
-11 -5 0 -10 5 -10 11 0 6 -12 49 -26 96 -26 83 -27 84 -58 81 -29 -3 -32 -7
-59 -97 -19 -59 -32 -89 -37 -80 -4 8 -18 51 -30 97 -24 82 -24 82 -58 82 -27
0 -32 -3 -28 -17z"/>
<path d="M580 255 l0 -135 33 0 32 0 0 135 0 135 -32 0 -33 0 0 -135z"/>
<path d="M730 255 l0 -135 30 0 29 0 3 81 3 81 65 -81 c53 -66 70 -81 92 -81
l28 0 0 135 0 135 -33 0 -33 0 4 -68 c6 -109 3 -110 -68 -17 -53 69 -70 84
-92 85 l-28 0 0 -135z"/>
<path d="M1113 370 c-45 -27 -66 -64 -66 -116 0 -104 102 -162 217 -124 l36
12 0 59 0 59 -31 0 c-30 0 -30 -1 -27 -42 l3 -43 -42 -3 c-56 -4 -93 29 -93
83 0 68 80 110 135 71 18 -12 23 -12 43 5 l23 18 -33 21 c-44 26 -122 27 -165
0z"/>
<path d="M1480 365 c0 -23 4 -25 43 -25 l43 0 -4 -110 -5 -110 37 0 37 0 -3
110 -3 110 46 0 c44 0 46 1 41 25 -4 25 -5 25 -118 25 l-114 0 0 -25z"/>
<path d="M1751 353 c12 -21 37 -61 55 -89 27 -44 31 -57 27 -98 l-6 -46 37 0
36 0 0 52 c0 43 7 63 44 122 23 39 46 77 50 84 5 8 -2 12 -23 12 -26 0 -35 -8
-67 -61 l-37 -61 -35 61 c-33 55 -39 61 -70 61 l-34 0 23 -37z"/>
<path d="M2050 255 l0 -135 30 0 c28 0 30 2 30 40 0 37 2 40 29 40 22 0 34 -9
55 -40 22 -34 31 -40 62 -40 l36 0 -32 40 -32 41 26 24 c19 17 26 34 26 60 0
76 -44 105 -160 105 l-70 0 0 -135z m151 75 c26 -14 24 -55 -3 -74 -12 -9 -37
-16 -55 -16 -33 0 -33 0 -33 50 l0 50 36 0 c19 0 44 -5 55 -10z"/>
<path d="M2350 255 l0 -135 105 0 105 0 0 25 c0 24 -2 25 -75 25 l-75 0 0 30
0 30 65 0 c63 0 65 1 65 25 0 24 -2 25 -65 25 l-65 0 0 30 0 30 75 0 c73 0 75
1 75 25 l0 25 -105 0 -105 0 0 -135z"/>
<path d="M2648 370 c-22 -17 -28 -30 -28 -60 0 -46 12 -57 87 -79 44 -13 59
-22 61 -38 4 -29 -36 -37 -90 -18 -39 13 -44 13 -55 -2 -18 -24 -16 -29 16
-43 42 -17 128 -14 157 5 35 22 47 60 32 93 -10 19 -29 31 -78 46 -51 17 -65
25 -65 41 0 16 8 21 42 23 23 2 51 -2 62 -7 16 -9 20 -7 25 15 4 15 4 29 1 32
-3 4 -36 8 -73 10 -57 3 -71 1 -94 -18z"/>
</g>
</svg>
